<svg width="240" height="191" viewBox="0 0 240 191" fill="none" xmlns="http://www.w3.org/2000/svg">
<path d="M40.074 134.104H68.746V151H18.186V61.144H40.074V134.104ZM101.074 134.104H129.746V151H79.186V61.144H101.074V134.104ZM136.474 105.944C136.474 97.0693 138.394 89.176 142.234 82.264C146.074 75.2667 151.407 69.848 158.234 66.008C165.146 62.0827 172.954 60.12 181.658 60.12C192.325 60.12 201.455 62.936 209.05 68.568C216.645 74.2 221.722 81.88 224.282 91.608H200.218C198.426 87.8533 195.866 84.9947 192.538 83.032C189.295 81.0693 185.583 80.088 181.402 80.088C174.661 80.088 169.199 82.4347 165.018 87.128C160.837 91.8213 158.746 98.0933 158.746 105.944C158.746 113.795 160.837 120.067 165.018 124.76C169.199 129.453 174.661 131.8 181.402 131.8C185.583 131.8 189.295 130.819 192.538 128.856C195.866 126.893 198.426 124.035 200.218 120.28H224.282C221.722 130.008 216.645 137.688 209.05 143.32C201.455 148.867 192.325 151.64 181.658 151.64C172.954 151.64 165.146 149.72 158.234 145.88C151.407 141.955 146.074 136.536 142.234 129.624C138.394 122.712 136.474 114.819 136.474 105.944Z" fill="#008000"/>
<path d="M17.8945 173.145H21.6595V174H16.8445V163.515H17.8945V173.145ZM22.678 169.89C22.678 169.05 22.843 168.315 23.173 167.685C23.513 167.045 23.978 166.555 24.568 166.215C25.168 165.865 25.843 165.69 26.593 165.69C27.373 165.69 28.043 165.87 28.603 166.23C29.173 166.59 29.583 167.05 29.833 167.61V165.81H30.883V174H29.833V172.185C29.573 172.745 29.158 173.21 28.588 173.58C28.028 173.94 27.358 174.12 26.578 174.12C25.838 174.12 25.168 173.945 24.568 173.595C23.978 173.245 23.513 172.75 23.173 172.11C22.843 171.47 22.678 170.73 22.678 169.89ZM29.833 169.905C29.833 169.245 29.698 168.665 29.428 168.165C29.158 167.665 28.788 167.28 28.318 167.01C27.858 166.74 27.348 166.605 26.788 166.605C26.208 166.605 25.688 166.735 25.228 166.995C24.768 167.255 24.403 167.635 24.133 168.135C23.873 168.625 23.743 169.21 23.743 169.89C23.743 170.56 23.873 171.15 24.133 171.66C24.403 172.16 24.768 172.545 25.228 172.815C25.688 173.075 26.208 173.205 26.788 173.205C27.348 173.205 27.858 173.07 28.318 172.8C28.788 172.53 29.158 172.145 29.428 171.645C29.698 171.145 29.833 170.565 29.833 169.905ZM37.1201 165.66C38.1001 165.66 38.9001 165.965 39.5201 166.575C40.1401 167.175 40.4501 168.05 40.4501 169.2V174H39.4151V169.32C39.4151 168.43 39.1901 167.75 38.7401 167.28C38.3001 166.81 37.6951 166.575 36.9251 166.575C36.1351 166.575 35.5051 166.825 35.0351 167.325C34.5651 167.825 34.3301 168.56 34.3301 169.53V174H33.2801V165.81H34.3301V167.205C34.5901 166.705 34.9651 166.325 35.4551 166.065C35.9451 165.795 36.5001 165.66 37.1201 165.66ZM46.2073 165.69C46.9773 165.69 47.6473 165.87 48.2173 166.23C48.7873 166.59 49.1973 167.045 49.4473 167.595V165.81H50.4973V174.21C50.4973 174.96 50.3323 175.625 50.0023 176.205C49.6823 176.785 49.2323 177.23 48.6523 177.54C48.0723 177.86 47.4123 178.02 46.6723 178.02C45.6223 178.02 44.7473 177.77 44.0473 177.27C43.3573 176.77 42.9273 176.09 42.7573 175.23H43.7923C43.9723 175.8 44.3123 176.255 44.8123 176.595C45.3223 176.935 45.9423 177.105 46.6723 177.105C47.2023 177.105 47.6773 176.99 48.0973 176.76C48.5173 176.54 48.8473 176.21 49.0873 175.77C49.3273 175.33 49.4473 174.81 49.4473 174.21V172.185C49.1873 172.745 48.7723 173.21 48.2023 173.58C47.6423 173.94 46.9773 174.12 46.2073 174.12C45.4573 174.12 44.7823 173.945 44.1823 173.595C43.5923 173.245 43.1273 172.75 42.7873 172.11C42.4573 171.47 42.2923 170.73 42.2923 169.89C42.2923 169.05 42.4573 168.315 42.7873 167.685C43.1273 167.045 43.5923 166.555 44.1823 166.215C44.7823 165.865 45.4573 165.69 46.2073 165.69ZM49.4473 169.905C49.4473 169.245 49.3123 168.665 49.0423 168.165C48.7723 167.665 48.4023 167.28 47.9323 167.01C47.4723 166.74 46.9623 166.605 46.4023 166.605C45.8223 166.605 45.3023 166.735 44.8423 166.995C44.3823 167.255 44.0173 167.635 43.7473 168.135C43.4873 168.625 43.3573 169.21 43.3573 169.89C43.3573 170.56 43.4873 171.15 43.7473 171.66C44.0173 172.16 44.3823 172.545 44.8423 172.815C45.3023 173.075 45.8223 173.205 46.4023 173.205C46.9623 173.205 47.4723 173.07 47.9323 172.8C48.4023 172.53 48.7723 172.145 49.0423 171.645C49.3123 171.145 49.4473 170.565 49.4473 169.905ZM59.9893 165.81V174H58.9393V172.56C58.6993 173.07 58.3293 173.46 57.8293 173.73C57.3293 174 56.7693 174.135 56.1493 174.135C55.1693 174.135 54.3693 173.835 53.7493 173.235C53.1293 172.625 52.8193 171.745 52.8193 170.595V165.81H53.8543V170.475C53.8543 171.365 54.0743 172.045 54.5143 172.515C54.9643 172.985 55.5743 173.22 56.3443 173.22C57.1343 173.22 57.7643 172.97 58.2343 172.47C58.7043 171.97 58.9393 171.235 58.9393 170.265V165.81H59.9893ZM61.9065 169.89C61.9065 169.05 62.0715 168.315 62.4015 167.685C62.7415 167.045 63.2065 166.555 63.7965 166.215C64.3965 165.865 65.0715 165.69 65.8215 165.69C66.6015 165.69 67.2715 165.87 67.8315 166.23C68.4015 166.59 68.8115 167.05 69.0615 167.61V165.81H70.1115V174H69.0615V172.185C68.8015 172.745 68.3865 173.21 67.8165 173.58C67.2565 173.94 66.5865 174.12 65.8065 174.12C65.0665 174.12 64.3965 173.945 63.7965 173.595C63.2065 173.245 62.7415 172.75 62.4015 172.11C62.0715 171.47 61.9065 170.73 61.9065 169.89ZM69.0615 169.905C69.0615 169.245 68.9265 168.665 68.6565 168.165C68.3865 167.665 68.0165 167.28 67.5465 167.01C67.0865 166.74 66.5765 166.605 66.0165 166.605C65.4365 166.605 64.9165 166.735 64.4565 166.995C63.9965 167.255 63.6315 167.635 63.3615 168.135C63.1015 168.625 62.9715 169.21 62.9715 169.89C62.9715 170.56 63.1015 171.15 63.3615 171.66C63.6315 172.16 63.9965 172.545 64.4565 172.815C64.9165 173.075 65.4365 173.205 66.0165 173.205C66.5765 173.205 67.0865 173.07 67.5465 172.8C68.0165 172.53 68.3865 172.145 68.6565 171.645C68.9265 171.145 69.0615 170.565 69.0615 169.905ZM75.9436 165.69C76.7136 165.69 77.3836 165.87 77.9536 166.23C78.5236 166.59 78.9336 167.045 79.1836 167.595V165.81H80.2336V174.21C80.2336 174.96 80.0686 175.625 79.7386 176.205C79.4186 176.785 78.9686 177.23 78.3886 177.54C77.8086 177.86 77.1486 178.02 76.4086 178.02C75.3586 178.02 74.4836 177.77 73.7836 177.27C73.0936 176.77 72.6636 176.09 72.4936 175.23H73.5286C73.7086 175.8 74.0486 176.255 74.5486 176.595C75.0586 176.935 75.6786 177.105 76.4086 177.105C76.9386 177.105 77.4136 176.99 77.8336 176.76C78.2536 176.54 78.5836 176.21 78.8236 175.77C79.0636 175.33 79.1836 174.81 79.1836 174.21V172.185C78.9236 172.745 78.5086 173.21 77.9386 173.58C77.3786 173.94 76.7136 174.12 75.9436 174.12C75.1936 174.12 74.5186 173.945 73.9186 173.595C73.3286 173.245 72.8636 172.75 72.5236 172.11C72.1936 171.47 72.0286 170.73 72.0286 169.89C72.0286 169.05 72.1936 168.315 72.5236 167.685C72.8636 167.045 73.3286 166.555 73.9186 166.215C74.5186 165.865 75.1936 165.69 75.9436 165.69ZM79.1836 169.905C79.1836 169.245 79.0486 168.665 78.7786 168.165C78.5086 167.665 78.1386 167.28 77.6686 167.01C77.2086 166.74 76.6986 166.605 76.1386 166.605C75.5586 166.605 75.0386 166.735 74.5786 166.995C74.1186 167.255 73.7536 167.635 73.4836 168.135C73.2236 168.625 73.0936 169.21 73.0936 169.89C73.0936 170.56 73.2236 171.15 73.4836 171.66C73.7536 172.16 74.1186 172.545 74.5786 172.815C75.0386 173.075 75.5586 173.205 76.1386 173.205C76.6986 173.205 77.2086 173.07 77.6686 172.8C78.1386 172.53 78.5086 172.145 78.7786 171.645C79.0486 171.145 79.1836 170.565 79.1836 169.905ZM90.0407 169.485C90.0407 169.845 90.0307 170.12 90.0107 170.31H83.2157C83.2457 170.93 83.3957 171.46 83.6657 171.9C83.9357 172.34 84.2907 172.675 84.7307 172.905C85.1707 173.125 85.6507 173.235 86.1707 173.235C86.8507 173.235 87.4207 173.07 87.8807 172.74C88.3507 172.41 88.6607 171.965 88.8107 171.405H89.9207C89.7207 172.205 89.2907 172.86 88.6307 173.37C87.9807 173.87 87.1607 174.12 86.1707 174.12C85.4007 174.12 84.7107 173.95 84.1007 173.61C83.4907 173.26 83.0107 172.77 82.6607 172.14C82.3207 171.5 82.1507 170.755 82.1507 169.905C82.1507 169.055 82.3207 168.31 82.6607 167.67C83.0007 167.03 83.4757 166.54 84.0857 166.2C84.6957 165.86 85.3907 165.69 86.1707 165.69C86.9507 165.69 87.6307 165.86 88.2107 166.2C88.8007 166.54 89.2507 167 89.5607 167.58C89.8807 168.15 90.0407 168.785 90.0407 169.485ZM88.9757 169.455C88.9857 168.845 88.8607 168.325 88.6007 167.895C88.3507 167.465 88.0057 167.14 87.5657 166.92C87.1257 166.7 86.6457 166.59 86.1257 166.59C85.3457 166.59 84.6807 166.84 84.1307 167.34C83.5807 167.84 83.2757 168.545 83.2157 169.455H88.9757ZM97.1279 173.145H100.893V174H96.0779V163.515H97.1279V173.145ZM109.801 169.485C109.801 169.845 109.791 170.12 109.771 170.31H102.976C103.006 170.93 103.156 171.46 103.426 171.9C103.696 172.34 104.051 172.675 104.491 172.905C104.931 173.125 105.411 173.235 105.931 173.235C106.611 173.235 107.181 173.07 107.641 172.74C108.111 172.41 108.421 171.965 108.571 171.405H109.681C109.481 172.205 109.051 172.86 108.391 173.37C107.741 173.87 106.921 174.12 105.931 174.12C105.161 174.12 104.471 173.95 103.861 173.61C103.251 173.26 102.771 172.77 102.421 172.14C102.081 171.5 101.911 170.755 101.911 169.905C101.911 169.055 102.081 168.31 102.421 167.67C102.761 167.03 103.236 166.54 103.846 166.2C104.456 165.86 105.151 165.69 105.931 165.69C106.711 165.69 107.391 165.86 107.971 166.2C108.561 166.54 109.011 167 109.321 167.58C109.641 168.15 109.801 168.785 109.801 169.485ZM108.736 169.455C108.746 168.845 108.621 168.325 108.361 167.895C108.111 167.465 107.766 167.14 107.326 166.92C106.886 166.7 106.406 166.59 105.886 166.59C105.106 166.59 104.441 166.84 103.891 167.34C103.341 167.84 103.036 168.545 102.976 169.455H108.736ZM111.242 169.89C111.242 169.05 111.407 168.315 111.737 167.685C112.077 167.045 112.542 166.555 113.132 166.215C113.732 165.865 114.407 165.69 115.157 165.69C115.937 165.69 116.607 165.87 117.167 166.23C117.737 166.59 118.147 167.05 118.397 167.61V165.81H119.447V174H118.397V172.185C118.137 172.745 117.722 173.21 117.152 173.58C116.592 173.94 115.922 174.12 115.142 174.12C114.402 174.12 113.732 173.945 113.132 173.595C112.542 173.245 112.077 172.75 111.737 172.11C111.407 171.47 111.242 170.73 111.242 169.89ZM118.397 169.905C118.397 169.245 118.262 168.665 117.992 168.165C117.722 167.665 117.352 167.28 116.882 167.01C116.422 166.74 115.912 166.605 115.352 166.605C114.772 166.605 114.252 166.735 113.792 166.995C113.332 167.255 112.967 167.635 112.697 168.135C112.437 168.625 112.307 169.21 112.307 169.89C112.307 170.56 112.437 171.15 112.697 171.66C112.967 172.16 113.332 172.545 113.792 172.815C114.252 173.075 114.772 173.205 115.352 173.205C115.912 173.205 116.422 173.07 116.882 172.8C117.352 172.53 117.722 172.145 117.992 171.645C118.262 171.145 118.397 170.565 118.397 169.905ZM122.895 167.265C123.125 166.755 123.475 166.36 123.945 166.08C124.425 165.8 125.01 165.66 125.7 165.66V166.755H125.415C124.655 166.755 124.045 166.96 123.585 167.37C123.125 167.78 122.895 168.465 122.895 169.425V174H121.845V165.81H122.895V167.265ZM131.119 165.66C132.099 165.66 132.899 165.965 133.519 166.575C134.139 167.175 134.449 168.05 134.449 169.2V174H133.414V169.32C133.414 168.43 133.189 167.75 132.739 167.28C132.299 166.81 131.694 166.575 130.924 166.575C130.134 166.575 129.504 166.825 129.034 167.325C128.564 167.825 128.329 168.56 128.329 169.53V174H127.279V165.81H128.329V167.205C128.589 166.705 128.964 166.325 129.454 166.065C129.944 165.795 130.499 165.66 131.119 165.66ZM137.296 164.265C137.086 164.265 136.906 164.19 136.756 164.04C136.606 163.89 136.531 163.705 136.531 163.485C136.531 163.265 136.606 163.085 136.756 162.945C136.906 162.795 137.086 162.72 137.296 162.72C137.506 162.72 137.686 162.795 137.836 162.945C137.986 163.085 138.061 163.265 138.061 163.485C138.061 163.705 137.986 163.89 137.836 164.04C137.686 164.19 137.506 164.265 137.296 164.265ZM137.821 165.81V174H136.771V165.81H137.821ZM144.039 165.66C145.019 165.66 145.819 165.965 146.439 166.575C147.059 167.175 147.369 168.05 147.369 169.2V174H146.334V169.32C146.334 168.43 146.109 167.75 145.659 167.28C145.219 166.81 144.614 166.575 143.844 166.575C143.054 166.575 142.424 166.825 141.954 167.325C141.484 167.825 141.249 168.56 141.249 169.53V174H140.199V165.81H141.249V167.205C141.509 166.705 141.884 166.325 142.374 166.065C142.864 165.795 143.419 165.66 144.039 165.66ZM153.126 165.69C153.896 165.69 154.566 165.87 155.136 166.23C155.706 166.59 156.116 167.045 156.366 167.595V165.81H157.416V174.21C157.416 174.96 157.251 175.625 156.921 176.205C156.601 176.785 156.151 177.23 155.571 177.54C154.991 177.86 154.331 178.02 153.591 178.02C152.541 178.02 151.666 177.77 150.966 177.27C150.276 176.77 149.846 176.09 149.676 175.23H150.711C150.891 175.8 151.231 176.255 151.731 176.595C152.241 176.935 152.861 177.105 153.591 177.105C154.121 177.105 154.596 176.99 155.016 176.76C155.436 176.54 155.766 176.21 156.006 175.77C156.246 175.33 156.366 174.81 156.366 174.21V172.185C156.106 172.745 155.691 173.21 155.121 173.58C154.561 173.94 153.896 174.12 153.126 174.12C152.376 174.12 151.701 173.945 151.101 173.595C150.511 173.245 150.046 172.75 149.706 172.11C149.376 171.47 149.211 170.73 149.211 169.89C149.211 169.05 149.376 168.315 149.706 167.685C150.046 167.045 150.511 166.555 151.101 166.215C151.701 165.865 152.376 165.69 153.126 165.69ZM156.366 169.905C156.366 169.245 156.231 168.665 155.961 168.165C155.691 167.665 155.321 167.28 154.851 167.01C154.391 166.74 153.881 166.605 153.321 166.605C152.741 166.605 152.221 166.735 151.761 166.995C151.301 167.255 150.936 167.635 150.666 168.135C150.406 168.625 150.276 169.21 150.276 169.89C150.276 170.56 150.406 171.15 150.666 171.66C150.936 172.16 151.301 172.545 151.761 172.815C152.221 173.075 152.741 173.205 153.321 173.205C153.881 173.205 154.391 173.07 154.851 172.8C155.321 172.53 155.691 172.145 155.961 171.645C156.231 171.145 156.366 170.565 156.366 169.905ZM163.449 168.75C163.449 167.72 163.674 166.8 164.124 165.99C164.574 165.17 165.189 164.535 165.969 164.085C166.749 163.625 167.619 163.395 168.579 163.395C169.749 163.395 170.749 163.675 171.579 164.235C172.419 164.785 173.029 165.565 173.409 166.575H172.179C171.879 165.865 171.419 165.31 170.799 164.91C170.189 164.51 169.449 164.31 168.579 164.31C167.809 164.31 167.114 164.49 166.494 164.85C165.884 165.21 165.404 165.73 165.054 166.41C164.704 167.08 164.529 167.86 164.529 168.75C164.529 169.64 164.704 170.42 165.054 171.09C165.404 171.76 165.884 172.275 166.494 172.635C167.114 172.995 167.809 173.175 168.579 173.175C169.449 173.175 170.189 172.98 170.799 172.59C171.419 172.19 171.879 171.64 172.179 170.94H173.409C173.029 171.94 172.419 172.715 171.579 173.265C170.739 173.815 169.739 174.09 168.579 174.09C167.619 174.09 166.749 173.865 165.969 173.415C165.189 172.955 164.574 172.32 164.124 171.51C163.674 170.7 163.449 169.78 163.449 168.75ZM179.402 165.66C180.022 165.66 180.577 165.79 181.067 166.05C181.567 166.31 181.957 166.71 182.237 167.25C182.527 167.78 182.672 168.43 182.672 169.2V174H181.637V169.32C181.637 168.43 181.412 167.75 180.962 167.28C180.522 166.81 179.917 166.575 179.147 166.575C178.357 166.575 177.727 166.825 177.257 167.325C176.787 167.825 176.552 168.56 176.552 169.53V174H175.502V162.9H176.552V167.205C176.812 166.715 177.192 166.335 177.692 166.065C178.202 165.795 178.772 165.66 179.402 165.66ZM184.514 169.89C184.514 169.05 184.679 168.315 185.009 167.685C185.349 167.045 185.814 166.555 186.404 166.215C187.004 165.865 187.679 165.69 188.429 165.69C189.209 165.69 189.879 165.87 190.439 166.23C191.009 166.59 191.419 167.05 191.669 167.61V165.81H192.719V174H191.669V172.185C191.409 172.745 190.994 173.21 190.424 173.58C189.864 173.94 189.194 174.12 188.414 174.12C187.674 174.12 187.004 173.945 186.404 173.595C185.814 173.245 185.349 172.75 185.009 172.11C184.679 171.47 184.514 170.73 184.514 169.89ZM191.669 169.905C191.669 169.245 191.534 168.665 191.264 168.165C190.994 167.665 190.624 167.28 190.154 167.01C189.694 166.74 189.184 166.605 188.624 166.605C188.044 166.605 187.524 166.735 187.064 166.995C186.604 167.255 186.239 167.635 185.969 168.135C185.709 168.625 185.579 169.21 185.579 169.89C185.579 170.56 185.709 171.15 185.969 171.66C186.239 172.16 186.604 172.545 187.064 172.815C187.524 173.075 188.044 173.205 188.624 173.205C189.184 173.205 189.694 173.07 190.154 172.8C190.624 172.53 190.994 172.145 191.264 171.645C191.534 171.145 191.669 170.565 191.669 169.905ZM196.481 166.695V171.78C196.481 172.28 196.576 172.625 196.766 172.815C196.956 173.005 197.291 173.1 197.771 173.1H198.731V174H197.606C196.866 174 196.316 173.83 195.956 173.49C195.596 173.14 195.416 172.57 195.416 171.78V166.695H194.276V165.81H195.416V163.755H196.481V165.81H198.731V166.695H196.481ZM201.498 167.625C201.768 167.055 202.183 166.59 202.743 166.23C203.313 165.87 203.983 165.69 204.753 165.69C205.503 165.69 206.173 165.865 206.763 166.215C207.353 166.555 207.813 167.045 208.143 167.685C208.483 168.315 208.653 169.05 208.653 169.89C208.653 170.73 208.483 171.47 208.143 172.11C207.813 172.75 207.348 173.245 206.748 173.595C206.158 173.945 205.493 174.12 204.753 174.12C203.973 174.12 203.298 173.945 202.728 173.595C202.168 173.235 201.758 172.77 201.498 172.2V174H200.463V162.9H201.498V167.625ZM207.588 169.89C207.588 169.21 207.453 168.625 207.183 168.135C206.923 167.635 206.563 167.255 206.103 166.995C205.643 166.735 205.123 166.605 204.543 166.605C203.983 166.605 203.468 166.74 202.998 167.01C202.538 167.28 202.173 167.665 201.903 168.165C201.633 168.665 201.498 169.245 201.498 169.905C201.498 170.565 201.633 171.145 201.903 171.645C202.173 172.145 202.538 172.53 202.998 172.8C203.468 173.07 203.983 173.205 204.543 173.205C205.123 173.205 205.643 173.075 206.103 172.815C206.563 172.545 206.923 172.16 207.183 171.66C207.453 171.15 207.588 170.56 207.588 169.89ZM214.17 174.12C213.4 174.12 212.705 173.95 212.085 173.61C211.475 173.26 210.99 172.77 210.63 172.14C210.28 171.5 210.105 170.755 210.105 169.905C210.105 169.055 210.285 168.315 210.645 167.685C211.005 167.045 211.495 166.555 212.115 166.215C212.735 165.865 213.43 165.69 214.2 165.69C214.97 165.69 215.665 165.865 216.285 166.215C216.915 166.555 217.405 167.045 217.755 167.685C218.115 168.315 218.295 169.055 218.295 169.905C218.295 170.745 218.115 171.485 217.755 172.125C217.395 172.765 216.9 173.26 216.27 173.61C215.64 173.95 214.94 174.12 214.17 174.12ZM214.17 173.205C214.71 173.205 215.21 173.085 215.67 172.845C216.13 172.595 216.5 172.225 216.78 171.735C217.07 171.235 217.215 170.625 217.215 169.905C217.215 169.185 217.075 168.58 216.795 168.09C216.515 167.59 216.145 167.22 215.685 166.98C215.225 166.73 214.725 166.605 214.185 166.605C213.645 166.605 213.145 166.73 212.685 166.98C212.225 167.22 211.855 167.59 211.575 168.09C211.305 168.58 211.17 169.185 211.17 169.905C211.17 170.625 211.305 171.235 211.575 171.735C211.855 172.225 212.22 172.595 212.67 172.845C213.13 173.085 213.63 173.205 214.17 173.205ZM221.574 166.695V171.78C221.574 172.28 221.669 172.625 221.859 172.815C222.049 173.005 222.384 173.1 222.864 173.1H223.824V174H222.699C221.959 174 221.409 173.83 221.049 173.49C220.689 173.14 220.509 172.57 220.509 171.78V166.695H219.369V165.81H220.509V163.755H221.574V165.81H223.824V166.695H221.574Z" fill="black"/>
</svg>
